<mxfile host="app.diagrams.net" modified="2021-12-04T07:34:13.295Z" agent="5.0 (Windows NT 10.0; Win64; x64) AppleWebKit/537.36 (KHTML, like Gecko) Chrome/96.0.4664.55 Safari/537.36 Edg/96.0.1054.34" etag="53T7vi5qJywRcsOE65LF" version="15.8.6" type="github">
  <diagram id="njND2kGzZErt5PBhhXXA" name="Page-1">
    <mxGraphModel dx="1038" dy="547" grid="1" gridSize="10" guides="1" tooltips="1" connect="1" arrows="1" fold="1" page="1" pageScale="1" pageWidth="827" pageHeight="1169" math="0" shadow="0">
      <root>
        <mxCell id="0" />
        <mxCell id="1" parent="0" />
        <mxCell id="dyvDGlt5trLfqe9o5V8G-1" value="&lt;font style=&quot;font-size: 24px&quot;&gt;开始&lt;/font&gt;" style="rounded=1;whiteSpace=wrap;html=1;" vertex="1" parent="1">
          <mxGeometry x="310" y="180" width="120" height="60" as="geometry" />
        </mxCell>
        <mxCell id="dyvDGlt5trLfqe9o5V8G-2" value="初始化种群" style="rounded=1;whiteSpace=wrap;html=1;fontSize=24;" vertex="1" parent="1">
          <mxGeometry x="285" y="290" width="170" height="60" as="geometry" />
        </mxCell>
        <mxCell id="dyvDGlt5trLfqe9o5V8G-3" value="计算适应度" style="rounded=1;whiteSpace=wrap;html=1;fontSize=24;" vertex="1" parent="1">
          <mxGeometry x="275" y="400" width="190" height="60" as="geometry" />
        </mxCell>
        <mxCell id="dyvDGlt5trLfqe9o5V8G-4" value="交叉" style="rounded=1;whiteSpace=wrap;html=1;fontSize=24;" vertex="1" parent="1">
          <mxGeometry x="312.5" y="800" width="115" height="60" as="geometry" />
        </mxCell>
        <mxCell id="dyvDGlt5trLfqe9o5V8G-5" value="达到最大迭代次数 or &lt;br&gt;达到最优解不变的迭代轮数" style="rhombus;whiteSpace=wrap;html=1;fontSize=24;" vertex="1" parent="1">
          <mxGeometry x="145" y="510" width="450" height="140" as="geometry" />
        </mxCell>
        <mxCell id="dyvDGlt5trLfqe9o5V8G-6" value="选择" style="rounded=1;whiteSpace=wrap;html=1;fontSize=24;" vertex="1" parent="1">
          <mxGeometry x="312.5" y="700" width="115" height="60" as="geometry" />
        </mxCell>
        <mxCell id="dyvDGlt5trLfqe9o5V8G-7" value="变异" style="rounded=1;whiteSpace=wrap;html=1;fontSize=24;" vertex="1" parent="1">
          <mxGeometry x="312.5" y="900" width="115" height="60" as="geometry" />
        </mxCell>
      </root>
    </mxGraphModel>
  </diagram>
</mxfile>
